<?xml version="1.0" encoding="UTF-8" standalone="no"?><svg xmlns="http://www.w3.org/2000/svg" xmlns:xlink="http://www.w3.org/1999/xlink" contentScriptType="application/ecmascript" contentStyleType="text/css" height="421px" preserveAspectRatio="none" style="width:339px;height:421px;" version="1.1" viewBox="0 0 339 421" width="339px" zoomAndPan="magnify">
<style>
rect:hover
{
    opacity:0.6
}
</style>
<defs><filter height="300%" id="fmnadev" width="300%" x="-1" y="-1"><feGaussianBlur result="blurOut" stdDeviation="2.0"/><feColorMatrix in="blurOut" result="blurOut2" type="matrix" values="0 0 0 0 0 0 0 0 0 0 0 0 0 0 0 0 0 0 .4 0"/><feOffset dx="4.0" dy="4.0" in="blurOut2" result="blurOut3"/><feBlend in="SourceGraphic" in2="blurOut3" mode="normal"/></filter></defs><g><!--class encoder--><rect fill="#FEFECE" filter="url(#fmnadev)" height="112.0234" style="stroke: #A80036; stroke-width: 1.5;" width="118" x="104" y="8"/><ellipse cx="134.3" cy="24" fill="#ADD1B2" rx="11" ry="11" style="stroke: #A80036; stroke-width: 1.0;"/><path d="M136.6438,19.6719 L136.8156,19.75 C137.0344,19.4375 137.2375,19.3438 137.5344,19.3438 C137.8313,19.3438 138.1125,19.4844 138.2688,19.75 C138.3625,19.9063 138.3781,20.0313 138.3781,20.4688 L138.3781,21.8906 C138.3781,22.3125 138.3469,22.5 138.2375,22.6563 C138.0656,22.875 137.8,23.0156 137.5344,23.0156 C137.3156,23.0156 137.0813,22.9063 136.9406,22.7656 C136.8,22.6406 136.7688,22.5156 136.7063,22.1094 C136.6125,21.7031 136.4406,21.4844 135.9563,21.2031 C135.4875,20.9531 134.8781,20.7969 134.3,20.7969 C132.5656,20.7969 131.3156,22.1094 131.3156,23.8906 L131.3156,24.9844 C131.3156,26.6875 132.6125,27.7813 134.6594,27.7813 C135.425,27.7813 136.1125,27.6563 136.5344,27.3906 C136.7219,27.2969 136.7219,27.2969 137.175,26.8125 C137.3625,26.625 137.5656,26.5469 137.7844,26.5469 C138.2531,26.5469 138.6438,26.9375 138.6438,27.3906 C138.6438,27.7813 138.3156,28.2344 137.7375,28.6406 C136.9875,29.1875 135.8313,29.4844 134.6125,29.4844 C131.7219,29.4844 129.6125,27.5938 129.6125,25.0156 L129.6125,23.8906 C129.6125,21.1719 131.6125,19.0938 134.2375,19.0938 C135.1125,19.0938 135.7063,19.2344 136.6438,19.6719 Z "/><text fill="#000000" font-family="sans-serif" font-size="12" lengthAdjust="spacingAndGlyphs" textLength="52" x="151.7" y="28.1543">encoder</text><line style="stroke: #A80036; stroke-width: 1.5;" x1="105" x2="221" y1="40" y2="40"/><line style="stroke: #A80036; stroke-width: 1.5;" x1="105" x2="221" y1="48" y2="48"/><ellipse cx="115" cy="59.9023" fill="#84BE84" rx="3" ry="3" style="stroke: #038048; stroke-width: 1.0;"/><text fill="#000000" font-family="sans-serif" font-size="11" lengthAdjust="spacingAndGlyphs" textLength="49" x="124" y="62.2104">__init__()</text><ellipse cx="115" cy="72.707" fill="#84BE84" rx="3" ry="3" style="stroke: #038048; stroke-width: 1.0;"/><text fill="#000000" font-family="sans-serif" font-size="11" lengthAdjust="spacingAndGlyphs" textLength="65" x="124" y="75.0151">compress()</text><ellipse cx="115" cy="85.5117" fill="#84BE84" rx="3" ry="3" style="stroke: #038048; stroke-width: 1.0;"/><text fill="#000000" font-family="sans-serif" font-size="11" lengthAdjust="spacingAndGlyphs" textLength="40" x="124" y="87.8198">recon()</text><ellipse cx="115" cy="98.3164" fill="#84BE84" rx="3" ry="3" style="stroke: #038048; stroke-width: 1.0;"/><text fill="#000000" font-family="sans-serif" font-size="11" lengthAdjust="spacingAndGlyphs" textLength="54" x="124" y="100.6245">get_size()</text><ellipse cx="115" cy="111.1211" fill="#84BE84" rx="3" ry="3" style="stroke: #038048; stroke-width: 1.0;"/><text fill="#000000" font-family="sans-serif" font-size="11" lengthAdjust="spacingAndGlyphs" textLength="92" x="124" y="113.4292">compute_error()</text><!--class piecewise_constant--><rect fill="#FEFECE" filter="url(#fmnadev)" height="99.2188" style="stroke: #A80036; stroke-width: 1.5;" width="155" x="175.5" y="180"/><ellipse cx="190.5" cy="196" fill="#ADD1B2" rx="11" ry="11" style="stroke: #A80036; stroke-width: 1.0;"/><path d="M192.8438,191.6719 L193.0156,191.75 C193.2344,191.4375 193.4375,191.3438 193.7344,191.3438 C194.0313,191.3438 194.3125,191.4844 194.4688,191.75 C194.5625,191.9063 194.5781,192.0313 194.5781,192.4688 L194.5781,193.8906 C194.5781,194.3125 194.5469,194.5 194.4375,194.6563 C194.2656,194.875 194,195.0156 193.7344,195.0156 C193.5156,195.0156 193.2813,194.9063 193.1406,194.7656 C193,194.6406 192.9688,194.5156 192.9063,194.1094 C192.8125,193.7031 192.6406,193.4844 192.1563,193.2031 C191.6875,192.9531 191.0781,192.7969 190.5,192.7969 C188.7656,192.7969 187.5156,194.1094 187.5156,195.8906 L187.5156,196.9844 C187.5156,198.6875 188.8125,199.7813 190.8594,199.7813 C191.625,199.7813 192.3125,199.6563 192.7344,199.3906 C192.9219,199.2969 192.9219,199.2969 193.375,198.8125 C193.5625,198.625 193.7656,198.5469 193.9844,198.5469 C194.4531,198.5469 194.8438,198.9375 194.8438,199.3906 C194.8438,199.7813 194.5156,200.2344 193.9375,200.6406 C193.1875,201.1875 192.0313,201.4844 190.8125,201.4844 C187.9219,201.4844 185.8125,199.5938 185.8125,197.0156 L185.8125,195.8906 C185.8125,193.1719 187.8125,191.0938 190.4375,191.0938 C191.3125,191.0938 191.9063,191.2344 192.8438,191.6719 Z "/><text fill="#000000" font-family="sans-serif" font-size="12" lengthAdjust="spacingAndGlyphs" textLength="123" x="204.5" y="200.1543">piecewise_constant</text><line style="stroke: #A80036; stroke-width: 1.5;" x1="176.5" x2="329.5" y1="212" y2="212"/><line style="stroke: #A80036; stroke-width: 1.5;" x1="176.5" x2="329.5" y1="220" y2="220"/><ellipse cx="186.5" cy="231.9023" fill="#84BE84" rx="3" ry="3" style="stroke: #038048; stroke-width: 1.0;"/><text fill="#000000" font-family="sans-serif" font-size="11" lengthAdjust="spacingAndGlyphs" textLength="49" x="195.5" y="234.2104">__init__()</text><ellipse cx="186.5" cy="244.707" fill="#84BE84" rx="3" ry="3" style="stroke: #038048; stroke-width: 1.0;"/><text fill="#000000" font-family="sans-serif" font-size="11" lengthAdjust="spacingAndGlyphs" textLength="19" x="195.5" y="247.0151">fit()</text><ellipse cx="186.5" cy="257.5117" fill="#84BE84" rx="3" ry="3" style="stroke: #038048; stroke-width: 1.0;"/><text fill="#000000" font-family="sans-serif" font-size="11" lengthAdjust="spacingAndGlyphs" textLength="65" x="195.5" y="259.8198">compress()</text><ellipse cx="186.5" cy="270.3164" fill="#84BE84" rx="3" ry="3" style="stroke: #038048; stroke-width: 1.0;"/><text fill="#000000" font-family="sans-serif" font-size="11" lengthAdjust="spacingAndGlyphs" textLength="40" x="195.5" y="272.6245">recon()</text><!--class piecewise_linear--><rect fill="#FEFECE" filter="url(#fmnadev)" height="99.2188" style="stroke: #A80036; stroke-width: 1.5;" width="134" x="6" y="180"/><ellipse cx="21" cy="196" fill="#ADD1B2" rx="11" ry="11" style="stroke: #A80036; stroke-width: 1.0;"/><path d="M23.3438,191.6719 L23.5156,191.75 C23.7344,191.4375 23.9375,191.3438 24.2344,191.3438 C24.5313,191.3438 24.8125,191.4844 24.9688,191.75 C25.0625,191.9063 25.0781,192.0313 25.0781,192.4688 L25.0781,193.8906 C25.0781,194.3125 25.0469,194.5 24.9375,194.6563 C24.7656,194.875 24.5,195.0156 24.2344,195.0156 C24.0156,195.0156 23.7813,194.9063 23.6406,194.7656 C23.5,194.6406 23.4688,194.5156 23.4063,194.1094 C23.3125,193.7031 23.1406,193.4844 22.6563,193.2031 C22.1875,192.9531 21.5781,192.7969 21,192.7969 C19.2656,192.7969 18.0156,194.1094 18.0156,195.8906 L18.0156,196.9844 C18.0156,198.6875 19.3125,199.7813 21.3594,199.7813 C22.125,199.7813 22.8125,199.6563 23.2344,199.3906 C23.4219,199.2969 23.4219,199.2969 23.875,198.8125 C24.0625,198.625 24.2656,198.5469 24.4844,198.5469 C24.9531,198.5469 25.3438,198.9375 25.3438,199.3906 C25.3438,199.7813 25.0156,200.2344 24.4375,200.6406 C23.6875,201.1875 22.5313,201.4844 21.3125,201.4844 C18.4219,201.4844 16.3125,199.5938 16.3125,197.0156 L16.3125,195.8906 C16.3125,193.1719 18.3125,191.0938 20.9375,191.0938 C21.8125,191.0938 22.4063,191.2344 23.3438,191.6719 Z "/><text fill="#000000" font-family="sans-serif" font-size="12" lengthAdjust="spacingAndGlyphs" textLength="102" x="35" y="200.1543">piecewise_linear</text><line style="stroke: #A80036; stroke-width: 1.5;" x1="7" x2="139" y1="212" y2="212"/><line style="stroke: #A80036; stroke-width: 1.5;" x1="7" x2="139" y1="220" y2="220"/><ellipse cx="17" cy="231.9023" fill="#84BE84" rx="3" ry="3" style="stroke: #038048; stroke-width: 1.0;"/><text fill="#000000" font-family="sans-serif" font-size="11" lengthAdjust="spacingAndGlyphs" textLength="49" x="26" y="234.2104">__init__()</text><ellipse cx="17" cy="244.707" fill="#84BE84" rx="3" ry="3" style="stroke: #038048; stroke-width: 1.0;"/><text fill="#000000" font-family="sans-serif" font-size="11" lengthAdjust="spacingAndGlyphs" textLength="19" x="26" y="247.0151">fit()</text><ellipse cx="17" cy="257.5117" fill="#84BE84" rx="3" ry="3" style="stroke: #038048; stroke-width: 1.0;"/><text fill="#000000" font-family="sans-serif" font-size="11" lengthAdjust="spacingAndGlyphs" textLength="65" x="26" y="259.8198">compress()</text><ellipse cx="17" cy="270.3164" fill="#84BE84" rx="3" ry="3" style="stroke: #038048; stroke-width: 1.0;"/><text fill="#000000" font-family="sans-serif" font-size="11" lengthAdjust="spacingAndGlyphs" textLength="40" x="26" y="272.6245">recon()</text><!--class List--><rect fill="#FEFECE" filter="url(#fmnadev)" height="73.6094" style="stroke: #A80036; stroke-width: 1.5;" width="86" x="120" y="339"/><ellipse cx="149.85" cy="355" fill="#B4A7E5" rx="11" ry="11" style="stroke: #A80036; stroke-width: 1.0;"/><path d="M150.8031,351.7813 L150.8031,358.2969 L152.5219,358.2969 C152.975,358.2969 153.1156,358.3281 153.2875,358.4531 C153.5219,358.625 153.6313,358.875 153.6313,359.1563 C153.6313,359.7188 153.2719,360 152.5219,360 L147.3813,360 C146.975,360 146.7719,359.9531 146.6156,359.8281 C146.3969,359.6719 146.2563,359.4063 146.2563,359.1563 C146.2563,358.8594 146.4125,358.5781 146.6625,358.4219 C146.8188,358.3125 146.9438,358.2969 147.3813,358.2969 L149.1,358.2969 L149.1,351.7813 L147.3813,351.7813 C146.9594,351.7813 146.7719,351.75 146.6156,351.6406 C146.3969,351.4688 146.2563,351.2188 146.2563,350.9375 C146.2563,350.6563 146.4125,350.3594 146.6625,350.2031 C146.8188,350.1094 146.9438,350.0938 147.3813,350.0938 L152.5219,350.0938 C152.975,350.0938 153.1156,350.125 153.2875,350.2344 C153.5219,350.4063 153.6313,350.6719 153.6313,350.9375 C153.6313,351.2344 153.4906,351.5156 153.225,351.6719 C153.1,351.75 152.9125,351.7813 152.5219,351.7813 Z "/><text fill="#000000" font-family="sans-serif" font-size="12" font-style="italic" lengthAdjust="spacingAndGlyphs" textLength="21" x="167.15" y="359.1543">List</text><line style="stroke: #A80036; stroke-width: 1.5;" x1="121" x2="205" y1="371" y2="371"/><line style="stroke: #A80036; stroke-width: 1.5;" x1="121" x2="205" y1="379" y2="379"/><text fill="#000000" font-family="sans-serif" font-size="11" lengthAdjust="spacingAndGlyphs" textLength="43" x="126" y="393.2104">model()</text><text fill="#000000" font-family="sans-serif" font-size="11" lengthAdjust="spacingAndGlyphs" textLength="74" x="126" y="406.0151">runAnalysis()</text><path d="M122.836,137.965 C115.043,152.122 107.055,166.634 99.8202,179.777 " fill="none" style="stroke: #A80036; stroke-width: 1.0;"/><polygon fill="none" points="116.753,134.499,132.53,120.354,129.018,141.25,116.753,134.499" style="stroke: #A80036; stroke-width: 1.0;"/><path d="M203.164,137.965 C210.957,152.122 218.945,166.634 226.18,179.777 " fill="none" style="stroke: #A80036; stroke-width: 1.0;"/><polygon fill="none" points="196.982,141.25,193.47,120.354,209.247,134.499,196.982,141.25" style="stroke: #A80036; stroke-width: 1.0;"/><path d="M215.801,290.225 C205.551,306.682 194.744,324.0333 185.596,338.7216 " fill="none" style="stroke: #A80036; stroke-width: 1.0;"/><polygon fill="#FFFFFF" points="222.781,279.018,216.2136,281.9961,216.4367,289.2037,223.0041,286.2257,222.781,279.018" style="stroke: #A80036; stroke-width: 1.0;"/><path d="M110.199,290.225 C120.449,306.682 131.256,324.0333 140.404,338.7216 " fill="none" style="stroke: #A80036; stroke-width: 1.0;"/><polygon fill="#FFFFFF" points="103.2191,279.018,102.996,286.2257,109.5634,289.2037,109.7865,281.9961,103.2191,279.018" style="stroke: #A80036; stroke-width: 1.0;"/></g></svg>